<svg width="89" height="81" viewBox="0 0 89 81" fill="none" xmlns="http://www.w3.org/2000/svg">
<path d="M73.7826 71.5422L5.31003e-05 80.2749L13.4521 8.82972L88.0541 -6.60866e-06L73.7826 71.5422Z" fill="#EB2316"/>
<path d="M18.7113 56.2799L17.0033 64.605L20.0073 64.2494C20.4443 64.1977 21.2426 64.0483 21.9725 63.4241C22.7357 62.7629 22.9996 61.9743 23.0131 61.1604C23.0207 60.6985 22.9437 60.0819 22.4715 59.6329C21.9242 59.1049 21.2151 59.1339 20.658 59.1999L19.5438 59.3318L19.9114 57.5429L23.123 57.1628L23.4194 55.7227L18.7113 56.2799ZM19.2473 60.7719L20.4817 60.6258C20.6783 60.6025 21.0384 60.5819 21.2961 60.8258C21.489 61.0225 21.5176 61.2716 21.5145 61.4585C21.5087 61.8105 21.394 62.1534 21.073 62.4438C20.7631 62.722 20.413 62.7964 20.2055 62.8209L18.7963 62.9877L19.2473 60.7719Z" fill="white"/>
<path d="M22.8542 63.9125L24.5583 63.7108L25.7629 61.4167L28.8215 61.0547L29.179 63.1639L30.7848 62.9738L29.314 55.025L27.7082 55.2151L22.8542 63.9125ZM26.5181 59.9223L28.1611 56.8299L28.6373 59.6715L26.5181 59.9223Z" fill="white"/>
<path d="M37.2909 54.0809L35.5431 54.2877L30.9403 62.9554L32.6881 62.7486L36.1489 55.8845L37.0794 62.2288L38.6525 62.0426L37.2909 54.0809Z" fill="white"/>
<path d="M45.153 53.1503L43.4052 53.3572L38.8024 62.0249L40.5502 61.818L44.011 54.954L44.9416 61.2983L46.5146 61.1121L45.153 53.1503Z" fill="white"/>
<path d="M52.0675 52.1893C50.844 52.3341 49.7359 52.7506 48.7475 53.8445C47.881 54.8143 47.3583 56.0946 47.3364 57.4144C47.316 58.6462 47.7276 59.4647 48.2749 59.9927C49.0581 60.7562 49.9933 60.8979 51.0311 60.7751C52.2545 60.6303 53.3626 60.2138 54.351 59.1198C55.2175 58.1501 55.7402 56.8698 55.7621 55.55C55.7825 54.3181 55.3709 53.4997 54.8237 52.9717C54.0405 52.2082 53.1052 52.0664 52.0675 52.1893ZM51.1746 59.3531C50.6503 59.4151 49.9635 59.4086 49.4272 58.8793C49.0946 58.5565 48.8204 57.9962 48.8337 57.1933C48.8465 56.4234 49.0901 55.5383 49.6024 54.885C50.1261 54.2083 50.8753 53.7354 51.9239 53.6113C52.4483 53.5492 53.135 53.5558 53.6714 54.085C54.004 54.4079 54.2781 54.9682 54.2648 55.7711C54.2521 56.541 54.0084 57.426 53.4961 58.0794C52.9725 58.7561 52.2233 59.229 51.1746 59.3531Z" fill="white"/>
<path d="M56.0685 59.9813L58.8213 59.6555C59.444 59.5818 60.1338 59.4014 60.7652 58.7997C61.2193 58.3728 61.7218 57.6547 61.7393 56.5988C61.7548 55.664 61.3044 55.2123 60.685 55.0881C61.5422 54.6793 62.0678 53.8816 62.0837 52.9247C62.0939 52.3088 61.8714 51.918 61.5592 51.6805C61.064 51.3001 60.3545 51.3511 59.9722 51.3964L57.7765 51.6562L56.0685 59.9813ZM57.8615 58.3641L58.3124 56.1592L59.2955 56.0429C59.5358 56.0144 59.8302 56.0125 60.0445 56.2396C60.216 56.4169 60.2447 56.655 60.2416 56.842C60.2334 57.3369 59.9991 57.661 59.8218 57.8357C59.6113 58.0362 59.3144 58.1921 58.9757 58.2322L57.8615 58.3641ZM58.6088 54.7191L58.9766 52.9192L59.6976 52.8339C59.8833 52.8119 60.178 52.788 60.3716 52.9517C60.4899 53.0475 60.5849 53.2338 60.5806 53.4978C60.5753 53.8167 60.4398 54.0962 60.2404 54.2845C60.0964 54.4223 59.8541 54.5717 59.4499 54.6195L58.6088 54.7191Z" fill="white"/>
<path d="M16.4328 41.2524L19.0891 41.7283C19.7 40.7459 20.6613 40.1532 21.8769 40.0093C22.5204 39.9331 23.3518 40.0024 23.9587 40.6969C24.4024 41.1953 24.5783 42.0606 24.5644 42.9005C24.5461 44.0043 24.0567 44.8286 23.4521 45.4271C22.6298 46.2429 21.7226 46.4461 21.0075 46.5307C20.3402 46.6097 19.7464 46.5602 19.1839 46.052C18.7859 45.668 18.5333 45.1231 18.5436 44.4992C18.5456 44.3792 18.5472 44.2832 18.573 44.1604L15.4031 44.5356C15.3753 44.7784 15.371 45.0424 15.367 45.2823C15.3471 46.4822 15.8499 47.7159 16.7639 48.5418C17.9595 49.5978 19.5036 49.7263 20.9097 49.5599C23.2931 49.2778 25 48.1897 26.1671 46.6625C26.8722 45.7408 27.7064 44.205 27.7434 41.9734C27.7785 39.8616 27.1088 38.6476 26.4534 38.0067C25.8218 37.363 24.76 36.842 23.0678 37.0423C21.757 37.1974 20.9871 37.7196 20.7226 37.8947L22.1146 34.2812L27.9538 33.59L28.7905 30.4734L20.1388 31.4974L16.4328 41.2524Z" fill="white"/>
<path d="M33.0144 39.2898L35.6706 39.7658C36.2816 38.7834 37.2429 38.1906 38.4584 38.0468C39.1019 37.9706 39.9333 38.0398 40.5402 38.7344C40.9839 39.2327 41.1599 40.098 41.1459 40.9379C41.1276 42.0418 40.6382 42.8661 40.0336 43.4645C39.2114 44.2803 38.3041 44.4835 37.5891 44.5681C36.9217 44.6471 36.3279 44.5977 35.7654 44.0894C35.3674 43.7055 35.1148 43.1606 35.1251 42.5366C35.1271 42.4167 35.1287 42.3207 35.1545 42.1979L31.9847 42.5731C31.9569 42.8158 31.9525 43.0798 31.9485 43.3198C31.9286 44.5196 32.4315 45.7534 33.3455 46.5792C34.5411 47.6352 36.0851 47.7638 37.4913 47.5974C39.8746 47.3153 41.5815 46.2271 42.7486 44.6999C43.4537 43.7782 44.288 42.2425 44.325 40.0108C44.36 37.8991 43.6903 36.6851 43.0349 36.0442C42.4033 35.4004 41.3416 34.8795 39.6494 35.0797C38.3385 35.2349 37.5687 35.7571 37.3041 35.9321L38.6961 32.3186L44.5353 31.6275L45.372 28.5108L36.7204 29.5348L33.0144 39.2898Z" fill="white"/>
<path d="M46.351 37.7113L49.0072 38.1873C49.6182 37.2049 50.5795 36.6121 51.795 36.4683C52.4385 36.3921 53.2699 36.4613 53.8768 37.1559C54.3205 37.6542 54.4965 38.5195 54.4825 39.3594C54.4642 40.4633 53.9748 41.2876 53.3702 41.886C52.548 42.7018 51.6407 42.905 50.9257 42.9896C50.2583 43.0686 49.6645 43.0192 49.102 42.5109C48.704 42.127 48.4514 41.5821 48.4617 40.9582C48.4637 40.8382 48.4653 40.7422 48.4911 40.6194L45.3213 40.9946C45.2935 41.2374 45.2891 41.5013 45.2851 41.7413C45.2652 42.9411 45.7681 44.1749 46.682 45.0007C47.8777 46.0567 49.4217 46.1853 50.8279 46.0189C53.2112 45.7368 54.9181 44.6486 56.0852 43.1214C56.7903 42.1997 57.6246 40.664 57.6616 38.4323C57.6966 36.3206 57.0269 35.1066 56.3715 34.4657C55.7399 33.8219 54.6781 33.301 52.986 33.5012C51.6751 33.6564 50.9053 34.1786 50.6407 34.3536L52.0327 30.7401L57.8719 30.049L58.7086 26.9323L50.057 27.9563L46.351 37.7113Z" fill="white"/>
<path d="M59.1937 38.6581C59.0913 39.1013 59.0603 39.5361 59.0531 39.968C58.9998 43.1836 60.7328 44.8226 63.8308 44.4799C69.0738 43.8833 70.3442 40.4279 70.8603 37.9958L72.2305 31.3912C72.333 30.9479 72.364 30.5132 72.3712 30.0812C72.4245 26.8657 70.6914 25.2267 67.5935 25.5694C62.3505 26.166 61.08 29.6214 60.564 32.0535L59.1937 38.6581ZM63.7338 31.6783C63.9659 30.5971 64.5403 28.9484 66.876 28.672C68.4252 28.4886 69.2204 29.3046 69.1977 30.6724C69.1917 31.0323 69.1381 31.3979 69.0606 31.7663L67.6904 38.3709C67.458 39.4762 66.8605 41.0797 64.5959 41.3717C62.1883 41.6806 62.221 39.7128 62.2265 39.3769C62.2325 39.0169 62.2862 38.6513 62.3636 38.2829L63.7338 31.6783Z" fill="white"/>
<path d="M81.1211 11.7329L81.9999 9.00003C81.9999 9.00003 77.2987 9.92218 73.6494 10.2111C70 10.5 64.0935 11.2081 60.1043 13.4354C57.0653 15.1334 55.044 17.6655 53.998 21.098L53.189 23.7525L55.9355 23.3557C56.5997 23.2597 57.2833 23.1819 57.9765 23.1115C58.6456 23.0436 59.3294 22.9836 60.0589 22.9195L60.5892 22.8731C61.4216 22.8007 62.2955 22.7248 63.1776 22.6353C67.5434 22.1923 71.4415 21.4583 74.5348 19.8459C77.7284 18.1812 80.0036 15.6115 81.1211 11.7329Z" fill="white"/>
<path d="M62.9997 20.8822C71.6416 20.0054 77.4697 18.0413 79.4277 11.2451C77.7585 11.5505 75.9247 11.7438 74.0092 11.9453C69.6122 12.4043 64.6294 12.9271 60.9637 14.9738C58.334 16.443 56.6009 18.6014 55.6834 21.6117C56.3819 21.5108 57.0927 21.4301 57.7985 21.3584C58.4816 21.2891 59.1775 21.228 59.9047 21.1642C60.0236 21.1538 60.1434 21.1432 60.264 21.1326C60.3196 21.1278 60.3752 21.123 60.431 21.1181C61.2671 21.0455 62.1302 20.9705 62.9997 20.8822Z" fill="#008F32"/>
</svg>
