<svg width="89" height="81" viewBox="0 0 89 81" fill="none" xmlns="http://www.w3.org/2000/svg">
<path d="M73.7826 71.5422L5.31003e-05 80.2749L13.4521 8.82975L88.0541 2.39089e-05L73.7826 71.5422Z" fill="black"/>
<path d="M41.1995 42.4805H43.3542V38.0225C43.3542 35.6675 41.852 34.4172 40.0445 34.4172C38.8482 34.4172 37.9445 34.9362 37.2935 35.6547H37.001C36.5097 35.0157 35.6592 34.4172 34.397 34.4172C33.2517 34.4172 32.3368 34.9227 31.8582 35.5085H31.5657V34.6437H29.5587V42.4805H31.7V38.3825C31.7 36.9845 32.1125 36.506 33.5472 36.506C34.982 36.506 35.3802 36.9845 35.3802 38.3825V42.4797H37.5357V38.3825C37.5357 36.9845 37.934 36.506 39.3695 36.506C40.8057 36.506 41.2032 36.9845 41.2032 38.3825L41.2002 42.4797L41.1995 42.4805ZM20.975 41.3585C20.5902 41.0795 20.417 40.667 20.417 40.0422C20.417 39.257 20.657 38.2895 21.0552 37.8732C21.3342 37.5935 21.7325 37.4607 22.2777 37.4607C23.0487 37.4607 23.9922 37.6632 24.3905 38.0727C24.6567 38.339 24.7767 38.711 24.7767 39.23C24.7767 39.9755 24.5637 41.0262 24.098 41.465C23.8325 41.705 23.474 41.8107 22.9692 41.8107C22.2792 41.8107 21.4122 41.6502 20.975 41.3585ZM24.365 43.0085L24.2712 43.727L26.2767 43.9745L27.227 36.2097L25.2222 35.963L25.1285 36.716H24.8967C24.5967 36.1842 23.7927 35.465 22.2777 35.465C20.165 35.465 18.6102 37.022 18.3305 39.1497C18.3046 39.3575 18.2913 39.5666 18.2908 39.776C18.2908 41.8107 19.673 43.4877 21.8255 43.727C21.9455 43.7382 22.0647 43.742 22.1847 43.7405C23.0885 43.7405 23.7665 43.355 24.1122 43.0092H24.3642L24.365 43.0085ZM69.7325 40.7105C68.1245 40.7105 67.5927 40.1787 67.5927 38.5692C67.5927 36.959 68.1252 36.4115 69.7325 36.4115C71.3405 36.4115 71.8722 36.9567 71.8722 38.5692C71.8722 40.181 71.3405 40.7105 69.7325 40.7105ZM59.42 40.7105C57.8112 40.7105 57.2802 40.1787 57.2802 38.5692C57.2802 36.959 57.8112 36.4115 59.4192 36.4115C61.0272 36.4115 61.5597 36.9567 61.5597 38.5692C61.5597 40.181 61.0272 40.7105 59.4192 40.7105H59.42ZM49.3722 40.7105C47.765 40.7105 47.2332 40.1787 47.2332 38.5692C47.2332 36.959 47.765 36.4115 49.3722 36.4115C50.9795 36.4115 51.5127 36.9567 51.5127 38.5692C51.5127 40.181 50.9802 40.7105 49.3722 40.7105ZM15.3065 32L14 42.4647L16.133 42.725L17.4185 32.2595L15.3065 32ZM71.9652 41.7222V42.4797H73.9715V34.6445H71.9652V35.4035H71.6727C71.3532 34.9775 70.5432 34.4187 69.4505 34.4187C67.058 34.4187 65.4245 36.239 65.4245 38.57C65.4245 40.9002 67.0587 42.7077 69.4505 42.7077C70.541 42.7077 71.351 42.149 71.6727 41.723H71.9652V41.7222ZM49.3722 34.418C46.7142 34.418 45.0672 36.2382 45.0672 38.5692C45.0672 40.8995 46.7142 42.707 49.3722 42.707C52.0302 42.707 53.6825 40.8972 53.6825 38.5692C53.6825 36.2405 52.034 34.418 49.3722 34.418ZM61.679 41.7222V42.4797H63.6852V32.09H61.5597V35.4027H61.2672C60.9485 34.9767 60.23 34.418 59.141 34.418C56.7485 34.418 55.1135 36.2382 55.1135 38.5692C55.1135 40.8995 56.7485 42.707 59.141 42.707C60.23 42.707 61.0805 42.1482 61.3865 41.7222H61.679Z" fill="white"/>
</svg>
