<svg width="89" height="81" viewBox="0 0 89 81" fill="none" xmlns="http://www.w3.org/2000/svg">
<path d="M73.7826 71.5422L5.31003e-05 80.2749L13.4521 8.82975L88.0541 2.39089e-05L73.7826 71.5422Z" fill="#0069FF"/>
<path fill-rule="evenodd" clip-rule="evenodd" d="M21.1273 34.0358C19.8018 33.8951 18.4656 34.1715 17.3023 34.827C16.139 35.4825 15.2058 36.4849 14.6309 37.6965C14.0561 38.908 13.8677 40.2692 14.0919 41.593C14.316 42.9167 14.9415 44.1381 15.8826 45.0891C16.8236 46.0401 18.0338 46.6741 19.347 46.904C20.6602 47.1339 22.0118 46.9484 23.2161 46.373C24.4204 45.7975 25.4182 44.8604 26.0724 43.6904C26.7266 42.5204 27.0051 41.175 26.8695 39.8391C26.7204 38.3541 26.068 36.9663 25.0221 35.9093C23.9762 34.8523 22.6007 34.1906 21.1273 34.0358ZM20.9183 43.9398C20.2054 44.0362 19.4804 43.905 18.8453 43.5648C18.2102 43.2246 17.6968 42.6925 17.3774 42.0432C17.058 41.3939 16.9485 40.66 17.0644 39.9448C17.1803 39.2296 17.5158 38.5689 18.0236 38.0557C18.5314 37.5424 19.1861 37.2024 19.8956 37.0834C20.6051 36.9644 21.3338 37.0724 21.9793 37.3922C22.6248 37.712 23.1545 38.2275 23.4942 38.8663C23.8338 39.5052 23.9662 40.2351 23.8728 40.9537C23.7748 41.7095 23.4322 42.4117 22.8981 42.9515C22.364 43.4913 21.6681 43.8387 20.9183 43.9398ZM30.3202 34.2929C30.0964 34.2935 29.8756 34.3442 29.6738 34.4416C29.4719 34.5389 29.2942 34.6804 29.1535 34.8557C29.0127 35.0309 28.9126 35.2356 28.8602 35.4548C28.8079 35.674 28.8047 35.9022 28.8509 36.1228C28.9925 36.8374 29.655 37.3257 30.3767 37.3257H34.5649L28.0471 46.0159C27.9989 46.08 27.9694 46.1565 27.9619 46.2366C27.9544 46.3167 27.9691 46.3973 28.0046 46.4694C28.04 46.5415 28.0946 46.6023 28.1624 46.6449C28.2302 46.6875 28.3084 46.7102 28.3882 46.7105H38.612C39.3332 46.7105 39.9962 46.2223 40.1377 45.5076C40.184 45.2871 40.1808 45.0589 40.1285 44.8397C40.0762 44.6206 39.9761 44.4159 39.8354 44.2406C39.6948 44.0653 39.5171 43.9238 39.3154 43.8264C39.1136 43.729 38.8928 43.6781 38.6691 43.6775H33.5661L40.0789 34.994C40.1276 34.9292 40.1574 34.8521 40.1649 34.7712C40.1725 34.6903 40.1576 34.6089 40.1218 34.5361C40.086 34.4633 40.0308 34.402 39.9623 34.359C39.8939 34.3161 39.8149 34.2932 39.7342 34.2929H30.3202ZM71.1736 34.3279C70.8351 34.409 70.5342 34.604 70.3207 34.8808C70.1072 35.1575 69.9938 35.4994 69.9993 35.8499V40.8993L61.8784 34.3883C61.8147 34.3374 61.7381 34.3056 61.6572 34.2966C61.5764 34.2876 61.4947 34.3018 61.4215 34.3375C61.3484 34.3733 61.2867 34.4291 61.2436 34.4985C61.2005 34.568 61.1778 34.6483 61.178 34.7303V45.1562C61.1725 45.5067 61.2859 45.8486 61.4994 46.1253C61.7129 46.4021 62.0138 46.5971 62.3523 46.6782C62.5721 46.7269 62.7999 46.7253 63.019 46.6735C63.2381 46.6217 63.4429 46.5209 63.6182 46.3788C63.7935 46.2366 63.9349 46.0565 64.0319 45.852C64.129 45.6474 64.1792 45.4234 64.1789 45.1967V40.1036L72.2999 46.6147C72.3635 46.6657 72.4402 46.6974 72.5209 46.7064C72.6017 46.7154 72.6834 46.7012 72.7565 46.6655C72.8297 46.6298 72.8913 46.574 72.9344 46.5045C72.9775 46.4351 73.0002 46.3548 73 46.2729V35.8089C73.0002 35.5822 72.95 35.3584 72.8529 35.1539C72.7559 34.9493 72.6145 34.7694 72.4392 34.6273C72.2639 34.4851 72.0592 34.3844 71.8402 34.3326C71.6211 34.2808 71.3933 34.2792 71.1736 34.3279ZM50.029 37.0354C53.4639 37.0354 56.0304 38.8642 56.0304 40.5002C56.0304 42.1361 53.4639 43.965 50.029 43.965C46.5941 43.965 44.0275 42.1361 44.0275 40.5002C44.0275 38.8642 46.5941 37.0354 50.029 37.0354ZM50.029 34.0028C45.0571 34.0028 41.0267 36.9118 41.0267 40.5002C41.0267 44.0886 45.0571 46.9976 50.029 46.9976C55.0009 46.9976 59.0312 44.0886 59.0312 40.5002C59.0312 36.9118 55.0008 34.0028 50.029 34.0028Z" fill="white"/>
</svg>
