<svg width="87" height="87" viewBox="0 0 87 87" fill="none" xmlns="http://www.w3.org/2000/svg">
<path d="M0 26.3356C0 19.3128 2.72163 12.7058 7.70361 7.71588C12.6856 2.72597 19.2821 0 26.2937 0H87V13.3988H26.2937C22.8802 13.3988 19.605 14.7387 17.1601 17.1875C14.7153 19.6362 13.3775 22.9166 13.3775 26.3356L13.2853 48.7902C12.6856 54.7504 8.1649 59.5555 2.3526 60.4796L0 60.8492V26.3356Z" fill="white"/>
<path d="M0 86.9999V73.601H60.7063C64.1198 73.601 67.395 72.2612 69.8399 69.7662C72.2847 67.3175 73.6686 64.0833 73.6686 60.618V39.2723C73.6686 32.9425 78.3738 27.3982 84.6474 26.4741L87 26.1045V60.618C87 67.6409 84.2784 74.2479 79.2964 79.2378C74.3144 84.2277 67.7179 86.9537 60.7063 86.9537H0V86.9999Z" fill="white"/>
<path d="M51.4336 60.8953V43.5692L43.4994 53.0408L35.6112 43.5692V60.8953H25.0938V26.8438H35.0577L43.4994 37.7938L51.9872 26.8438H61.905V60.8953H51.4336Z" fill="white"/>
</svg>
