<svg width="339" height="386" viewBox="0 0 339 386" fill="none" xmlns="http://www.w3.org/2000/svg">
<path d="M42.5051 284.804L57.2601 170.413C58.1455 163.549 64.4276 158.703 71.2916 159.588L284.998 187.154C291.899 188.044 296.754 194.387 295.81 201.281L280.101 316.058C279.166 322.889 272.889 327.682 266.053 326.784L53.3011 298.832C46.4506 297.932 41.6212 291.657 42.5051 284.804Z" fill="#F4971A"/>
<g clip-path="url(#clip0)">
<path d="M215.266 219.11C215.761 215.585 213.294 212.311 209.769 211.816L137.859 201.709C134.335 201.214 131.06 203.681 130.565 207.206L121.881 268.997C121.385 272.522 123.853 275.796 127.377 276.291L199.288 286.398C202.812 286.893 206.086 284.426 206.581 280.901L215.266 219.11ZM157.23 212.576L168.684 214.186L167.41 223.253L155.955 221.643L157.23 212.576ZM141.006 270.062L130.091 268.528L131.366 259.461L142.28 260.995L141.006 270.062ZM147.968 220.521L137.054 218.987L138.328 209.92L149.243 211.454L147.968 220.521ZM160.447 272.794L148.993 271.184L150.267 262.118L161.721 263.727L160.447 272.794ZM158.525 250.177L160.602 235.397C160.909 233.209 163.015 232.664 165.178 234.185L177.781 243.087C179.944 244.608 179.693 246.602 177.195 247.468L162.597 252.547C160.091 253.47 158.217 252.366 158.525 250.177ZM179.917 275.531L168.463 273.921L169.737 264.854L181.191 266.464L179.917 275.531ZM186.88 225.989L175.425 224.379L176.699 215.312L188.154 216.922L186.88 225.989ZM198.818 278.187L187.904 276.653L189.178 267.586L200.093 269.12L198.818 278.187ZM205.781 228.646L194.866 227.112L196.141 218.045L207.055 219.579L205.781 228.646Z" fill="white"/>
</g>
<g style="mix-blend-mode:multiply" filter="url(#filter0_f)">
<path d="M263.005 195.364L66.2637 215.523L85.3836 190.188L182.092 159.132L263.005 195.364Z" fill="url(#paint0_linear)"/>
</g>
<path d="M54.1873 206.344L10.5735 99.5586C7.95817 93.1552 11.0257 85.8437 17.427 83.2232L216.603 1.68665C223.047 -0.951195 230.405 2.16955 232.988 8.63552L275.964 116.228C278.52 122.627 275.43 129.889 269.047 132.485L70.5085 213.214C64.1044 215.818 56.8012 212.744 54.1873 206.344Z" fill="#009640"/>
<g clip-path="url(#clip1)">
<path d="M161.195 56.5327C160.397 56.2724 159.559 56.3946 158.86 56.8662L119.302 84.7907C118.244 85.5213 117.86 86.9278 118.358 88.1755L135.151 130.283C132.501 129.778 129.557 129.988 126.695 131.129C119.708 133.916 115.939 140.953 118.281 146.825C120.624 152.698 128.201 155.21 135.188 152.424C142.176 149.637 145.944 142.6 143.602 136.727L130.651 104.252L165.605 79.5328L174.708 102.358C172.058 101.853 169.098 102.07 166.253 103.204C159.266 105.991 155.497 113.028 157.839 118.901C160.181 124.774 167.758 127.286 174.746 124.499C181.733 121.712 185.502 114.675 183.16 108.803L162.989 58.2274C162.648 57.4189 161.993 56.7929 161.195 56.5327Z" fill="white"/>
</g>
<defs>
<filter id="filter0_f" x="61.2511" y="154.12" width="206.767" height="66.416" filterUnits="userSpaceOnUse" color-interpolation-filters="sRGB">
<feFlood flood-opacity="0" result="BackgroundImageFix"/>
<feBlend mode="normal" in="SourceGraphic" in2="BackgroundImageFix" result="shape"/>
<feGaussianBlur stdDeviation="2.50626" result="effect1_foregroundBlur"/>
</filter>
<linearGradient id="paint0_linear" x1="84.8352" y1="200.429" x2="210.432" y2="187.13" gradientUnits="userSpaceOnUse">
<stop stop-color="#C4C4C4"/>
<stop offset="1" stop-color="#C4C4C4" stop-opacity="0"/>
</linearGradient>
<clipPath id="clip0">
<rect width="85.5331" height="85.5331" fill="white" transform="translate(132.175 195.751) rotate(8)"/>
</clipPath>
<clipPath id="clip1">
<rect width="80.2405" height="80.2405" fill="white" transform="translate(89.209 84.5671) rotate(-21.7432)"/>
</clipPath>
</defs>
</svg>
